<svg width="330" height="249" viewBox="0 0 330 249" fill="none" xmlns="http://www.w3.org/2000/svg">
<path d="M263.829 30.6185H210.233C208.186 30.6185 206.526 32.2779 206.526 34.3249V128.497C206.526 130.544 208.186 132.203 210.233 132.203H263.829C265.876 132.203 267.536 130.544 267.536 128.497V34.3249C267.536 32.2779 265.876 30.6185 263.829 30.6185Z" fill="#101223"/>
<path d="M247.134 30.5291H193.538C191.491 30.5291 189.831 32.1885 189.831 34.2355V128.407C189.831 130.454 191.491 132.114 193.538 132.114H247.134C249.181 132.114 250.841 130.454 250.841 128.407V34.2355C250.841 32.1885 249.181 30.5291 247.134 30.5291Z" fill="white" stroke="#101223" stroke-width="0.48" stroke-miterlimit="10"/>
<path d="M243.55 37.3404H197.138C195.365 37.3404 193.928 38.7778 193.928 40.551V122.092C193.928 123.865 195.365 125.302 197.138 125.302H243.55C245.323 125.302 246.76 123.865 246.76 122.092V40.551C246.76 38.7778 245.323 37.3404 243.55 37.3404Z" stroke="#B3B5BD" stroke-width="0.48" stroke-miterlimit="10"/>
<path d="M242.68 74.0712H197.724C197.569 74.0712 197.439 73.9493 197.439 73.803C197.439 73.6567 197.569 73.5347 197.724 73.5347H242.68C242.835 73.5347 242.965 73.6567 242.965 73.803C242.965 73.9493 242.835 74.0712 242.68 74.0712Z" fill="#B3B5BD"/>
<path d="M242.68 93.1397H197.724C197.569 93.1397 197.439 93.0177 197.439 92.8714C197.439 92.7251 197.569 92.6032 197.724 92.6032H242.68C242.835 92.6032 242.965 92.7251 242.965 92.8714C242.965 93.0177 242.835 93.1397 242.68 93.1397Z" fill="#B3B5BD"/>
<path d="M242.68 112.216H197.724C197.569 112.216 197.439 112.094 197.439 111.948C197.439 111.802 197.569 111.68 197.724 111.68H242.68C242.835 111.68 242.965 111.802 242.965 111.948C242.965 112.094 242.835 112.216 242.68 112.216Z" fill="#B3B5BD"/>
<path d="M242.68 54.9946H197.724C197.569 54.9946 197.439 54.8727 197.439 54.7264C197.439 54.5801 197.569 54.4581 197.724 54.4581H242.68C242.835 54.4581 242.965 54.5801 242.965 54.7264C242.965 54.8727 242.835 54.9946 242.68 54.9946Z" fill="#B3B5BD"/>
<path d="M220.206 37.3404V125.302" stroke="#B3B5BD" stroke-width="0.48" stroke-miterlimit="10"/>
<path d="M224.002 65.935V81.6628" stroke="#101223" stroke-width="0.87" stroke-miterlimit="10" stroke-linecap="round"/>
<path d="M216.54 65.935V81.6628" stroke="#101223" stroke-width="0.87" stroke-miterlimit="10" stroke-linecap="round"/>
<path d="M239.486 107.494C239.38 107.494 239.291 107.437 239.25 107.339L228.627 84.8734C228.562 84.7433 228.627 84.5808 228.749 84.5158C228.879 84.4589 229.033 84.5158 229.098 84.6458L239.721 107.12C239.786 107.25 239.73 107.404 239.6 107.469C239.567 107.486 239.526 107.494 239.486 107.494Z" fill="#528EE8"/>
<path d="M236.885 51.2557C236.795 51.2557 236.706 51.2069 236.665 51.1337L229.545 39.982C229.472 39.852 229.521 39.6894 229.643 39.6163C229.765 39.5512 229.911 39.5837 229.992 39.6894L237.112 50.8411C237.194 50.9631 237.153 51.1256 237.031 51.2069C236.99 51.2394 236.942 51.2475 236.885 51.2475V51.2557Z" fill="#528EE8"/>
<path d="M201.211 40.3559C201.316 40.3559 201.406 40.4128 201.446 40.5103L212.07 62.9764C212.135 63.1064 212.07 63.269 211.948 63.334C211.818 63.3909 211.663 63.334 211.598 63.2039L200.975 40.7298C200.91 40.5998 200.967 40.4453 201.097 40.3803C201.129 40.364 201.17 40.3559 201.211 40.3559Z" fill="#528EE8"/>
<path d="M235.145 86.2308C235.048 86.2308 234.95 86.1739 234.91 86.0845L231.268 79.0537C231.203 78.9237 231.244 78.7692 231.374 78.7042C231.504 78.631 231.667 78.6798 231.732 78.8099L235.373 85.8407C235.438 85.9707 235.389 86.1333 235.259 86.1983C235.218 86.2145 235.178 86.2227 235.137 86.2227L235.145 86.2308Z" fill="#528EE8"/>
<path d="M210.436 50.0527C210.338 50.0527 210.241 49.9958 210.2 49.9064L206.559 42.8756C206.494 42.7456 206.534 42.5911 206.665 42.5261C206.795 42.453 206.957 42.5017 207.022 42.6318L210.664 49.6626C210.729 49.7926 210.68 49.9552 210.55 50.0202C210.509 50.0365 210.468 50.0446 210.428 50.0446L210.436 50.0527Z" fill="#528EE8"/>
<path d="M62.8301 166.674V175.867L127.416 217.824C127.416 217.824 162.334 191.855 184.385 160.351C206.437 128.846 215.5 102.308 215.5 102.308H225.635V99.1382L212.224 94.7571L192.424 97.6914V100.918L204.568 101.512C204.568 101.512 186.101 143.014 144.81 162.293C103.519 181.573 62.8382 166.674 62.8382 166.674H62.8301Z" fill="#B3B5BD"/>
<path d="M127.408 218.19C127.343 218.19 127.278 218.174 127.221 218.133L62.635 176.176C62.5375 176.111 62.4806 175.997 62.4806 175.883V166.674C62.4806 166.561 62.5375 166.455 62.6269 166.39C62.7244 166.325 62.8382 166.309 62.952 166.349C63.3584 166.504 103.991 181.037 144.664 162.041C183.012 144.135 201.837 106.51 204.039 101.902L192.4 101.333C192.213 101.325 192.075 101.17 192.075 100.983V97.7564C192.075 97.5857 192.205 97.4313 192.375 97.4069L212.167 94.4808C212.224 94.4727 212.273 94.4727 212.33 94.4808L225.741 98.8618C225.888 98.9106 225.985 99.0406 225.985 99.1869V102.357C225.985 102.544 225.822 102.698 225.636 102.698H215.744C214.776 105.413 205.405 130.951 184.67 160.57C162.838 191.758 127.969 217.857 127.619 218.125C127.562 218.174 127.489 218.198 127.416 218.198L127.408 218.19ZM63.1715 175.672L127.4 217.418C130.228 215.272 163.179 190.051 184.093 160.172C205.86 129.074 215.069 102.495 215.167 102.235C215.215 102.097 215.345 101.999 215.492 102.007H225.286V99.4389L212.192 95.1635L192.806 98.0409V100.634L204.624 101.211C204.738 101.219 204.844 101.284 204.901 101.382C204.95 101.487 204.95 101.601 204.901 101.707C204.714 102.129 185.897 143.55 144.972 162.675C106.38 180.687 67.8451 168.723 63.1796 167.162V175.672H63.1715Z" fill="#101223"/>
<path d="M225.619 99.1869H214.476C207.591 114.695 199.227 129.513 189.514 143.436C164.837 178.167 127.977 205.787 127.977 205.787L107.965 193.782L88.5067 182.101L62.8138 166.674C62.8138 166.674 105.104 170.259 156.124 138.161C185.702 119.556 203.031 97.7483 203.031 97.7483H192.4L220.328 84.8002L225.611 99.1869H225.619Z" fill="white"/>
<path d="M127.985 206.136C127.92 206.136 127.855 206.12 127.806 206.087L62.6431 166.975C62.4724 166.878 62.4155 166.666 62.5131 166.496C62.5781 166.374 62.7163 166.309 62.8463 166.325C63.269 166.357 105.616 169.527 155.945 137.868C182.516 121.165 199.341 101.65 202.3 98.0978H192.408C192.213 98.1384 192.026 98.0165 191.985 97.8214C191.945 97.6264 192.067 97.4394 192.262 97.3988L220.19 84.4264C220.279 84.3857 220.385 84.3857 220.466 84.4264C220.555 84.467 220.629 84.5401 220.661 84.6296L225.944 99.0406C226.009 99.2195 225.92 99.4227 225.733 99.4877C225.692 99.5039 225.652 99.5121 225.611 99.5121H214.679C213.655 101.877 204.185 123.327 189.774 143.615C165.35 177.997 128.546 205.762 128.18 206.047C128.123 206.104 128.05 206.136 127.968 206.144L127.985 206.136ZM64.2037 167.097L127.96 205.372C130.838 203.186 165.723 176.257 189.214 143.241C204.372 121.905 214.037 99.2926 214.134 99.0569C214.191 98.9268 214.313 98.8456 214.459 98.8456H225.123L220.141 85.2554L193.993 97.3988H203.031C203.161 97.3988 203.283 97.4719 203.348 97.5938C203.405 97.7158 203.389 97.8621 203.308 97.9677C203.129 98.1872 185.605 120.035 156.311 138.462C129.903 155.076 105.893 161.96 90.4005 164.805C77.103 167.251 67.6094 167.227 64.1956 167.105L64.2037 167.097Z" fill="#101223"/>
<path d="M137.413 174.721C135.544 175.501 117.426 187.499 108.29 193.57L88.8562 181.955C95.1148 179.159 105.73 174.567 109.42 174.201C114.703 173.673 129.537 170.706 134.991 168.007C140.437 165.309 158.067 153.231 161.562 154.856C165.057 156.482 139.909 173.673 137.413 174.721Z" fill="#B3B5BD"/>
<path d="M127.408 217.841C127.229 217.841 127.091 217.686 127.099 217.507L127.652 206.104C127.66 205.925 127.814 205.787 127.993 205.795C128.172 205.795 128.31 205.949 128.302 206.128L127.741 217.532C127.741 217.711 127.586 217.849 127.408 217.841Z" fill="#101223"/>
<path d="M135.666 76.4771C135.666 76.4771 138.543 79.2488 138.25 80.0209C137.958 80.7931 136.381 80.6793 136.381 80.6793" fill="white"/>
<path d="M136.609 81.0938H136.349C136.129 81.0776 135.958 80.8825 135.975 80.6631C135.991 80.4436 136.186 80.2729 136.405 80.2892C136.926 80.2892 137.747 80.2241 137.868 79.8828C137.99 79.5414 136.731 78.0783 135.381 76.786C135.227 76.6315 135.219 76.3714 135.381 76.217C135.536 76.0626 135.78 76.0626 135.942 76.217C137.096 77.3224 138.966 79.2975 138.633 80.1916C138.299 81.0857 137.145 81.0938 136.609 81.0938Z" fill="#101223"/>
<path d="M134.235 72.2911C135.845 73.0958 135.991 75.5098 136.324 77.1192C136.787 79.2813 137.218 81.4596 137.584 83.6379C137.82 85.0197 134.276 85.8488 133.561 85.5805L135.341 90.8557L127.294 89.6771L126.587 85.1091C126.587 85.1091 125.124 80.5899 125.88 77.485C126.408 75.5261 127.465 73.7542 128.944 72.3643C128.944 72.3643 132.65 71.4946 134.227 72.283L134.235 72.2911Z" fill="white"/>
<path d="M135.341 91.2214H135.276L127.229 90.0347C127.058 90.0103 126.92 89.8803 126.887 89.7015L126.18 85.166C126.14 85.036 124.717 80.5655 125.489 77.3956C126.042 75.3554 127.156 73.5103 128.708 72.0717C128.757 72.031 128.822 71.9985 128.887 71.9823C129.05 71.9823 132.788 71.0882 134.479 71.9335C135.999 72.7382 136.349 74.6239 136.617 76.1764C136.674 76.469 136.722 76.7453 136.779 76.981C137.243 79.1268 137.673 81.3377 138.039 83.5079C138.112 84.0281 137.877 84.5483 137.438 84.8409C136.487 85.5074 135.373 85.8975 134.219 85.9707L135.828 90.6687C135.901 90.8801 135.788 91.1076 135.576 91.1808C135.536 91.197 135.495 91.2052 135.454 91.2052L135.341 91.2296V91.2214ZM127.611 89.2869L134.747 90.3273L133.187 85.67C133.138 85.5236 133.187 85.3611 133.292 85.2554C133.406 85.1498 133.569 85.1172 133.707 85.1741C134.829 85.2066 135.934 84.8815 136.861 84.2475C137.113 84.0443 137.218 83.8493 137.186 83.6704C136.812 81.5084 136.381 79.3138 135.934 77.1761C135.877 76.9079 135.82 76.6234 135.771 76.3145C135.519 74.949 135.227 73.2421 134.056 72.665C132.886 72.0879 130.196 72.5106 129.106 72.7544C127.733 74.0793 126.741 75.7456 126.245 77.5825C125.522 80.533 126.928 84.9465 126.936 84.9872L127.611 89.3032V89.2869Z" fill="#101223"/>
<path d="M137.169 81.9961C136.495 82.7195 135.357 82.752 134.633 82.0773C134.568 82.0123 134.503 81.9473 134.447 81.8741" fill="white"/>
<path d="M135.796 82.9958H135.698C135.081 82.947 134.512 82.6382 134.146 82.1424C133.983 81.9879 133.975 81.736 134.13 81.5734C134.284 81.4108 134.536 81.4027 134.699 81.5571C134.723 81.5815 134.739 81.5978 134.755 81.6303C134.991 81.9473 135.341 82.1505 135.731 82.1993C136.162 82.1749 136.568 82.0042 136.893 81.7197C137.048 81.5653 137.308 81.5571 137.462 81.7197C137.616 81.8741 137.616 82.118 137.462 82.2805C137.007 82.7113 136.422 82.9633 135.796 82.9958Z" fill="#101223"/>
<path d="M134.408 76.6381C134.576 76.5904 134.617 76.2121 134.498 75.7932C134.379 75.3742 134.146 75.0733 133.978 75.121C133.81 75.1687 133.769 75.547 133.888 75.966C134.007 76.3849 134.239 76.6859 134.408 76.6381Z" fill="#101223"/>
<path d="M126.058 91.319L126.156 88.7911L135.91 88.214L137.933 92.335C133.943 92.5788 129.944 92.2374 126.058 91.319Z" fill="white"/>
<path d="M135.666 92.7902C132.406 92.7902 129.147 92.4163 125.969 91.6847C125.782 91.6441 125.644 91.4734 125.652 91.2783L125.782 88.7586C125.782 88.5473 125.953 88.3847 126.164 88.3685L135.918 87.7914C136.08 87.7914 136.235 87.8727 136.308 88.019L138.332 92.1399C138.397 92.2537 138.397 92.3919 138.332 92.5138C138.267 92.6276 138.153 92.7089 138.015 92.717C138.015 92.717 137.096 92.7902 135.666 92.7902ZM126.465 90.9776C130.025 91.7823 133.666 92.1155 137.316 91.9855L135.666 88.6448L126.538 89.1813L126.465 90.9776Z" fill="#101223"/>
<path d="M159.4 100.032C160.172 98.9187 160.863 97.7483 161.472 96.5291C161.521 95.6512 161.668 94.7815 161.919 93.9362C162.318 93.1315 163.415 92.3268 163.992 93.416C163.992 93.416 164.195 91.5303 165.488 92.5057C166.65 93.3103 167.195 94.7571 166.845 96.1308C166.585 97.5694 161.716 105.031 161.716 105.031" fill="white"/>
<path d="M161.733 105.437C161.651 105.437 161.578 105.421 161.513 105.372C161.326 105.25 161.269 105.007 161.391 104.82C163.334 101.853 166.284 97.0655 166.463 96.0739C166.78 94.8547 166.301 93.5623 165.252 92.8552C165.033 92.6926 164.854 92.6276 164.764 92.6682C164.675 92.7089 164.431 93.1884 164.399 93.4729C164.374 93.6924 164.179 93.8549 163.96 93.8305C163.83 93.8143 163.708 93.733 163.643 93.6192C163.464 93.286 163.285 93.286 163.236 93.286C162.814 93.3916 162.464 93.6924 162.293 94.0906C162.09 94.6352 161.976 95.2204 161.96 95.8057C161.944 96.0739 161.911 96.3421 161.863 96.6103C161.253 97.8783 160.538 99.0975 159.725 100.244C159.587 100.414 159.335 100.447 159.156 100.309C159.001 100.187 158.961 99.9754 159.05 99.8047C159.806 98.7318 160.481 97.6101 161.066 96.4315C161.107 96.2039 161.131 95.9682 161.147 95.7406C161.164 95.066 161.302 94.3914 161.554 93.7574C161.838 93.0665 162.464 92.5707 163.204 92.4569C163.407 92.4569 163.61 92.5057 163.789 92.6113C163.903 92.3025 164.138 92.0424 164.431 91.8961C164.878 91.7416 165.382 91.8473 165.723 92.1805C167.016 93.0746 167.617 94.6759 167.235 96.2039C166.967 97.6833 162.553 104.486 162.05 105.259C161.976 105.372 161.846 105.437 161.708 105.446L161.733 105.437Z" fill="#101223"/>
<path d="M99.6421 115.321C99.6421 115.321 98.5611 117.109 97.9433 118.467C97.4719 119.767 97.1305 121.116 96.9436 122.49C96.6266 122.043 96.0739 121.889 95.7325 121.482C95.635 122.067 95.448 122.628 95.1717 123.157C94.879 123.677 94.3426 124.018 93.7411 124.067C93.4241 124.051 93.1153 123.978 92.8308 123.831C91.7822 123.392 90.0591 122.596 89.9534 121.271C89.9534 120.759 90.0916 120.263 90.3598 119.832C91.3515 117.995 95.4643 113.346 96.1308 112.59" fill="white"/>
<path d="M93.7411 124.408C93.3754 124.392 93.0096 124.303 92.6764 124.14C91.7823 123.758 89.7015 122.88 89.5552 121.247C89.547 120.661 89.7015 120.084 90.0103 119.588C91.1158 117.54 95.7894 112.346 95.8382 112.265C95.9845 112.094 96.2446 112.086 96.4071 112.233C96.5778 112.379 96.586 112.639 96.4397 112.801C95.2286 114.134 91.6116 118.312 90.7256 119.962C90.4899 120.32 90.3599 120.743 90.3517 121.173C90.4411 122.189 91.8067 122.897 92.9934 123.392C93.2209 123.506 93.4729 123.579 93.733 123.596C94.1963 123.555 94.6027 123.287 94.8303 122.88C95.0904 122.401 95.2611 121.872 95.3424 121.336C95.3749 121.182 95.4887 121.068 95.6431 121.027C95.7894 120.986 95.952 121.027 96.0495 121.157C96.1958 121.303 96.3584 121.425 96.5291 121.531L96.6672 121.629C96.8542 120.483 97.1631 119.353 97.5857 118.264C98.2034 116.898 99.252 115.142 99.3007 115.045C99.4145 114.858 99.6503 114.793 99.8372 114.907C100.024 115.012 100.089 115.248 99.9835 115.435C99.9835 115.435 99.9754 115.451 99.9672 115.459C99.9672 115.459 98.8943 117.256 98.301 118.572C97.8458 119.832 97.5207 121.133 97.3256 122.458C97.2931 122.677 97.0818 122.823 96.8623 122.791C96.7567 122.775 96.6591 122.718 96.6022 122.628C96.4559 122.449 96.2771 122.295 96.0739 122.189L95.9682 122.124C95.8707 122.531 95.7163 122.921 95.5049 123.287C95.1392 123.929 94.4727 124.351 93.733 124.392V124.416L93.7411 124.408Z" fill="#101223"/>
<path d="M146.59 159.4C146.59 159.4 145.785 164.951 148.085 165.772C150.386 166.593 162.188 157.197 161.367 155.108C160.546 153.019 156.539 152.304 152.914 155.108C150.906 156.685 148.793 158.116 146.59 159.4Z" fill="#101223"/>
<path d="M148.402 166.211C148.248 166.211 148.102 166.187 147.964 166.138C145.428 165.244 146.11 159.944 146.2 159.335C146.216 159.213 146.289 159.099 146.403 159.034C148.589 157.766 150.686 156.344 152.678 154.783C154.531 153.198 157.01 152.556 159.4 153.052C160.44 153.271 161.31 153.978 161.749 154.954C161.854 155.23 162.18 156.075 159.635 158.701C156.953 161.472 150.849 166.203 148.411 166.203L148.402 166.211ZM146.964 159.644C146.769 161.253 146.663 164.837 148.224 165.39C149.483 165.829 155.466 161.846 159.05 158.148C160.79 156.36 161.09 155.474 161.001 155.246C160.651 154.515 159.977 153.986 159.18 153.832C157.034 153.417 154.816 154.011 153.166 155.441C151.19 156.978 149.118 158.384 146.964 159.652V159.644Z" fill="#101223"/>
<path d="M122.84 134.251C122.84 134.251 136.909 138.023 147.411 136.105L146.46 159.375C146.46 159.375 150.443 160.822 154.783 155.222C154.783 155.222 158.977 126.627 156.262 125.254C153.548 123.88 128.692 125.506 128.692 125.506L122.84 134.251Z" fill="white"/>
<path d="M147.72 159.961C147.248 159.961 146.777 159.904 146.322 159.766C146.151 159.7 146.037 159.538 146.045 159.359L146.972 136.6C136.511 138.307 122.832 134.69 122.726 134.65C122.596 134.617 122.49 134.52 122.45 134.39C122.393 134.268 122.393 134.13 122.45 134.008L128.302 125.262C128.375 125.156 128.497 125.091 128.627 125.075C131.179 124.912 153.669 123.466 156.409 124.872C159.148 126.278 155.864 150.443 155.157 155.263C155.141 155.336 155.116 155.401 155.076 155.458C152.158 159.278 149.345 159.944 147.728 159.944L147.72 159.961ZM146.915 159.058C147.858 159.245 150.938 159.449 154.409 155.035C156.433 141.152 157.628 126.375 156.092 125.603C153.978 124.53 135.975 125.424 128.952 125.888L123.539 133.934C126.27 134.601 138.259 137.308 147.362 135.641C147.484 135.617 147.614 135.65 147.712 135.739C147.809 135.82 147.866 135.942 147.858 136.072L146.923 159.066L146.915 159.058Z" fill="#101223"/>
<path d="M115.061 130.196C115.061 130.196 111.355 152.962 110.623 153.32C109.892 153.678 89.7015 171.21 89.7015 171.21L95.6675 176.461C95.6675 176.461 118.199 162.83 119.483 158.798C120.767 154.767 130.805 130.196 130.805 130.196H115.061Z" fill="white"/>
<path d="M95.6757 176.867C95.5781 176.867 95.4806 176.826 95.3993 176.761L89.4333 171.519C89.2626 171.372 89.2382 171.112 89.3845 170.942C89.4008 170.925 89.417 170.909 89.4333 170.893C92.7252 168.048 108.803 154.1 110.355 153.011C110.965 151.865 113.305 138.421 114.663 130.122C114.695 129.919 114.866 129.773 115.069 129.765H130.813C130.952 129.765 131.073 129.838 131.155 129.952C131.236 130.066 131.252 130.212 131.195 130.342C131.098 130.594 121.133 154.954 119.889 158.92C118.597 163.049 96.8298 176.249 95.9032 176.81C95.8301 176.851 95.7488 176.867 95.6675 176.867H95.6757ZM90.3436 171.234L95.7244 175.957C102.162 172.063 118.101 161.83 119.06 158.684C120.222 154.986 128.603 134.422 130.155 130.626H115.402C111.72 153.255 111.054 153.588 110.81 153.702C110.144 154.092 98.3417 164.268 90.368 171.21L90.3355 171.226L90.3436 171.234Z" fill="#101223"/>
<path d="M106.746 151.662C106.746 151.662 119.556 160.391 127.042 158.904C148.598 154.515 159.611 124.734 159.611 124.734C159.611 124.734 145.127 122.791 137.43 120.873L115.069 128.034L106.746 151.662Z" fill="#101223"/>
<path d="M125.14 159.449C117.556 159.449 106.998 152.32 106.519 151.987C106.364 151.881 106.307 151.694 106.364 151.524L114.687 127.863C114.728 127.749 114.817 127.651 114.939 127.611L137.308 120.458C137.381 120.434 137.454 120.434 137.527 120.458C145.111 122.36 159.522 124.286 159.668 124.303C159.79 124.319 159.896 124.392 159.961 124.498C160.009 124.612 160.009 124.733 159.961 124.847C159.847 125.148 148.622 154.897 127.099 159.262C126.457 159.383 125.806 159.449 125.148 159.449H125.14ZM107.226 151.532C109.063 152.735 120.304 159.863 126.961 158.506C146.582 154.523 157.538 128.854 159.05 125.05C156.425 124.693 144.273 122.986 137.446 121.287L115.37 128.342L107.226 151.524V151.532Z" fill="#101223"/>
<path d="M143.233 96.2934C143.233 96.2934 142.063 91.5953 128.058 90.0998C124.668 89.7015 121.238 90.1485 118.068 91.4002C117.703 93.5704 114.395 120.596 112.94 128.009C112.94 128.009 131.821 132.13 139.429 121.385C139.453 121.385 142.152 98.6424 143.225 96.2934H143.233Z" fill="#528EE8"/>
<path d="M127.034 95.2042C127.034 95.2042 112.777 96.8135 109.152 98.5773C105.527 100.341 93.4079 113.809 93.4079 113.809L98.9512 119.125C98.9512 119.125 108.331 110.005 110.94 108.827C113.549 107.648 124.311 109.997 124.311 109.997L127.026 95.2042H127.034Z" fill="#528EE8"/>
<path d="M143.233 96.2934L151.085 109.38L159.57 98.5286L164.025 103.454C164.025 103.454 156.522 118.199 152.897 118.125C145.029 117.971 134.528 107.502 134.528 107.502L143.225 96.2934H143.233Z" fill="#528EE8"/>
<path d="M95.6756 176.477C95.253 171.104 92.7902 169.511 91.0264 170.096C89.2626 170.682 88.0677 170.852 88.5636 176.079C89.0594 181.305 91.8879 188.815 94.7246 188.149C97.5613 187.482 96.0983 181.825 95.6756 176.477Z" fill="#101223"/>
<path d="M94.3995 188.547C93.8874 188.531 93.3916 188.352 92.9852 188.043C90.6443 186.369 88.6205 180.508 88.1572 176.087C87.6776 170.999 88.7505 170.389 90.6931 169.755L90.9044 169.69C91.7416 169.422 92.652 169.56 93.3673 170.072C94.8628 171.064 95.8301 173.291 96.082 176.42C96.1714 177.558 96.3096 178.712 96.4478 179.834C96.968 184.158 97.415 187.881 94.8384 188.498C94.7003 188.531 94.554 188.547 94.4158 188.555L94.3995 188.547ZM91.766 170.348C91.5709 170.348 91.3759 170.381 91.1889 170.446L90.9776 170.519C89.4576 171.007 88.5636 171.324 88.9862 176.014C89.3926 180.175 91.3108 185.865 93.4323 187.393C93.7737 187.677 94.2288 187.799 94.6596 187.718C96.5535 187.271 96.1389 183.865 95.6675 179.923C95.5293 178.801 95.3911 177.639 95.3017 176.485C94.9847 172.64 93.6924 171.234 92.9446 170.738C92.587 170.486 92.1562 170.356 91.7254 170.356H91.7579L91.766 170.348Z" fill="#101223"/>
<path d="M132.219 68.3653C128.375 67.6581 124.4 68.4872 121.157 70.6736C120.109 71.3727 119.223 72.2993 118.564 73.3803C116.711 76.599 117.987 80.5574 116.841 83.9874C115.695 87.4175 111.818 90.0347 109.298 92.4244C106.405 95.1717 103.584 98.114 101.845 101.707C98.9594 107.705 100.577 113.192 104.682 118.052C105.234 118.735 105.884 119.345 106.6 119.857C108.038 120.718 109.664 121.238 111.338 121.36C114.435 121.767 118.906 122.076 121.637 120.182C123.596 118.824 125.091 115.654 125.197 113.338C125.302 111.03 124.351 108.51 125.01 106.21C125.993 102.788 130.131 101.024 131.106 97.6182C131.805 95.1554 130.659 92.5544 129.212 90.4493C128.099 88.8399 126.733 86.9542 127.326 85.0847C127.684 83.9712 128.651 83.1909 129.367 82.2805C130.261 81.1264 130.773 79.7202 130.83 78.2571C130.895 76.9648 130.252 75.77 130.301 74.5264C131.399 75.0222 132.715 74.5264 133.813 74.4126C135.202 74.2581 136.601 74.0712 137.99 73.868C137.698 72.3968 136.901 71.0719 135.739 70.1291C134.715 69.2837 133.504 68.6823 132.203 68.3734L132.219 68.3653Z" fill="white"/>
<path d="M115.516 122.076C114.102 122.059 112.696 121.954 111.298 121.759C109.567 121.62 107.884 121.084 106.388 120.19C105.641 119.653 104.966 119.019 104.389 118.304C99.7478 112.818 98.7562 107.177 101.495 101.536C103.267 97.8783 106.161 94.8465 109.038 92.1236C109.623 91.5709 110.274 91.002 110.973 90.4167C113.151 88.531 115.63 86.3933 116.475 83.8574C116.882 82.3781 117.069 80.8419 117.028 79.3138C117.077 77.2493 117.134 75.1034 118.231 73.1852C118.922 72.0473 119.849 71.08 120.962 70.3566C124.295 68.0889 128.375 67.2273 132.341 67.9426C133.699 68.2596 134.967 68.8936 136.04 69.7877C137.3 70.7956 138.161 72.2261 138.454 73.8111C138.47 73.9167 138.446 74.0305 138.381 74.1199C138.316 74.2012 138.218 74.2581 138.112 74.2825C136.722 74.4938 135.3 74.6808 133.918 74.8271C133.634 74.8271 133.349 74.9165 133.049 74.9734C132.309 75.1522 131.545 75.1929 130.797 75.0953C130.854 75.4936 130.927 75.8837 131.025 76.2739C131.22 76.9323 131.309 77.615 131.309 78.2978C131.244 79.834 130.708 81.3214 129.765 82.5406C129.545 82.8251 129.31 83.0771 129.074 83.3453C128.521 83.8736 128.082 84.5076 127.79 85.2229C127.278 86.8323 128.432 88.5148 129.456 90.051L129.618 90.2786C131.537 93.0909 132.187 95.6106 131.569 97.797C131.049 99.6015 129.708 100.951 128.424 102.259C127.139 103.568 125.936 104.779 125.473 106.38C125.197 107.738 125.197 109.128 125.473 110.485C125.636 111.452 125.701 112.436 125.685 113.419C125.579 115.687 124.124 119.052 121.954 120.572C120.174 121.783 117.825 122.092 115.541 122.092L115.516 122.076ZM129.643 68.4872C126.717 68.4953 123.856 69.3731 121.417 71.0069C120.418 71.6734 119.572 72.5431 118.946 73.5754C117.947 75.3229 117.898 77.2655 117.849 79.33C117.89 80.9638 117.695 82.5894 117.256 84.1581C116.345 86.9135 113.769 89.1163 111.509 91.0589C110.826 91.6441 110.184 92.2049 109.607 92.7495C106.787 95.4236 103.974 98.3823 102.235 101.926C99.6665 107.25 100.626 112.606 105.023 117.833C105.551 118.491 106.169 119.068 106.86 119.564C108.25 120.385 109.81 120.873 111.42 121.003C113.167 121.23 118.491 121.937 121.442 119.889C123.352 118.572 124.734 115.451 124.831 113.362C124.847 112.428 124.774 111.485 124.628 110.558C124.319 109.095 124.319 107.591 124.628 106.128C125.148 104.324 126.489 102.966 127.773 101.666C129.058 100.366 130.261 99.1463 130.724 97.5369C131.269 95.5943 130.659 93.3022 128.887 90.7012L128.724 90.4655C127.595 88.8562 126.31 86.9542 126.952 84.9872C127.269 84.1663 127.773 83.4266 128.407 82.817C128.635 82.565 128.854 82.3212 129.058 82.0611C129.895 80.9719 130.374 79.647 130.431 78.2734C130.431 77.6638 130.35 77.0542 130.171 76.469C129.992 75.8431 129.903 75.1929 129.895 74.5345C129.895 74.315 130.074 74.1443 130.293 74.1443C130.35 74.1443 130.407 74.1606 130.464 74.185C131.236 74.4207 132.057 74.4207 132.829 74.185C133.146 74.1281 133.455 74.0712 133.756 74.0387C134.991 73.8924 136.251 73.7298 137.495 73.5591C137.153 72.3399 136.446 71.2589 135.471 70.4623C134.495 69.6495 133.341 69.0805 132.098 68.7879C131.285 68.5929 130.456 68.4872 129.618 68.4709L129.643 68.4872Z" fill="#101223"/>
<path d="M132.447 78.9724C132.366 78.4197 132.138 77.8995 131.781 77.4768C131.561 77.1111 131.293 76.7778 130.976 76.4934C130.643 76.2089 130.204 76.0869 129.773 76.1682C129.399 76.2739 129.09 76.5259 128.928 76.8754C128.765 77.2168 128.676 77.5988 128.676 77.9808C128.651 79.6796 129.537 81.2564 130.992 82.1261L130.862 81.9961" fill="white"/>
<path d="M130.976 82.5325C130.903 82.5325 130.838 82.5163 130.773 82.4756C129.188 81.5328 128.229 79.8177 128.253 77.9808C128.253 77.5419 128.35 77.103 128.546 76.7047C128.765 76.2495 129.171 75.9163 129.659 75.7862C130.212 75.6805 130.781 75.8269 131.203 76.1926C131.561 76.5015 131.87 76.8591 132.122 77.2655C132.52 77.7532 132.78 78.3466 132.853 78.9724C132.862 79.1919 132.691 79.3788 132.471 79.3869C132.252 79.3869 132.065 79.2244 132.057 78.9968C131.984 78.5172 131.772 78.0783 131.464 77.7126C131.26 77.3793 131.008 77.0867 130.716 76.8266C130.48 76.6153 130.163 76.5177 129.854 76.5665C129.602 76.6478 129.391 76.8347 129.277 77.0704C129.139 77.3631 129.074 77.6801 129.074 78.0052C129.058 79.4357 129.749 80.7769 130.911 81.6059C131 81.6222 131.09 81.6628 131.155 81.7278L131.285 81.8579C131.415 82.0123 131.415 82.2399 131.285 82.3862C131.212 82.4756 131.106 82.5325 130.992 82.5406L130.976 82.5325Z" fill="#101223"/>
<path d="M151.345 118.54H151.272C143.298 117.052 134.625 106.917 134.252 106.47C134.089 106.315 134.081 106.063 134.235 105.901C134.39 105.738 134.642 105.73 134.804 105.884C134.829 105.909 134.845 105.925 134.861 105.958C134.951 106.055 143.713 116.305 151.41 117.727C151.629 117.743 151.8 117.947 151.776 118.166C151.751 118.385 151.556 118.556 151.337 118.532L151.345 118.54Z" fill="#101223"/>
<path d="M133.561 85.548L129.757 84.6052C130.196 85.5643 130.976 86.3202 131.943 86.7266C133.431 87.4581 134.121 87.2143 134.121 87.2143L133.561 85.5399V85.548Z" fill="#101223"/>
<path d="M133.829 87.6532C131.951 87.4988 130.285 86.3933 129.399 84.7352C129.35 84.597 129.383 84.4426 129.488 84.3288C129.586 84.2231 129.74 84.1744 129.887 84.2069L133.691 85.1497C133.821 85.1823 133.934 85.2798 133.983 85.4098L134.544 87.0842C134.617 87.2956 134.503 87.515 134.292 87.5882C134.138 87.6369 133.983 87.6613 133.829 87.6532ZM130.61 85.2392C131.033 85.7025 131.553 86.0845 132.122 86.3527C132.577 86.5965 133.065 86.7591 133.577 86.8241L133.252 85.865L130.602 85.2392H130.61Z" fill="#101223"/>
<path d="M215.646 102.658C215.516 102.658 215.394 102.576 215.353 102.446L214.451 99.6502C214.402 99.4877 214.484 99.317 214.646 99.2682C214.809 99.2195 214.98 99.3007 215.036 99.4633L215.939 102.251C215.987 102.414 215.906 102.584 215.744 102.641C215.711 102.65 215.679 102.658 215.654 102.658H215.646Z" fill="#101223"/>
</svg>
