<svg width="330" height="249" viewBox="0 0 330 249" fill="none" xmlns="http://www.w3.org/2000/svg">
<path d="M246.435 220.661H246.37L212.549 215.101C205.291 213.939 199.658 208.152 198.699 200.861L194.546 170.153C194.505 169.934 194.651 169.731 194.871 169.698C194.879 169.698 194.887 169.698 194.895 169.698C195.123 169.666 195.334 169.82 195.366 170.039L199.487 200.796C200.406 207.729 205.779 213.24 212.687 214.337L246.313 219.856L261.285 208.688L236.535 203.877C228.066 202.21 221.742 195.106 221.059 186.499L215.695 117.272L189.937 130.383C189.831 130.423 189.717 130.423 189.612 130.383C189.506 130.35 189.425 130.277 189.376 130.179L179.346 109.932C179.297 109.818 179.297 109.697 179.346 109.583C179.395 109.469 179.492 109.388 179.606 109.355L204.486 102.308C204.641 102.259 204.811 102.316 204.917 102.446L216.329 116.199L279.378 124.132C279.606 124.165 279.768 124.368 279.744 124.595C279.72 124.823 279.516 124.985 279.289 124.961L216.589 117.069L221.953 186.369C222.612 194.619 228.683 201.414 236.803 202.991L262.448 207.981C262.61 208.014 262.732 208.136 262.773 208.298C262.805 208.461 262.748 208.623 262.618 208.721L246.744 220.515C246.671 220.604 246.565 220.661 246.451 220.661H246.435ZM180.313 110.046L189.986 129.456L215.467 116.524L204.454 103.251L180.313 110.038V110.046Z" fill="#B3B5BD"/>
<path d="M194.952 170.47C194.724 170.511 194.505 170.365 194.464 170.137C194.424 169.909 194.57 169.69 194.797 169.649L219.304 159.432C219.377 159.416 219.45 159.416 219.515 159.432L270.803 166.52C271.031 166.552 271.185 166.764 271.161 166.991C271.128 167.219 270.917 167.373 270.689 167.341L219.539 160.269L195.139 170.462C195.082 170.486 195.017 170.486 194.96 170.478L194.952 170.47Z" fill="#B3B5BD"/>
<path d="M228.627 209.469C230.642 209.469 232.276 207.536 232.276 205.153C232.276 202.769 230.642 200.837 228.627 200.837C226.611 200.837 224.977 202.769 224.977 205.153C224.977 207.536 226.611 209.469 228.627 209.469Z" fill="white"/>
<path d="M228.627 209.883C226.391 209.883 224.571 207.754 224.571 205.145C224.571 202.535 226.391 200.414 228.627 200.414C230.862 200.414 232.682 202.535 232.682 205.145C232.682 207.754 230.87 209.883 228.627 209.883ZM228.627 201.243C226.847 201.243 225.392 202.991 225.392 205.145C225.392 207.299 226.847 209.054 228.627 209.054C230.407 209.054 231.862 207.299 231.862 205.145C231.862 202.991 230.407 201.243 228.627 201.243Z" fill="#B3B5BD"/>
<path d="M214.736 223.969C216.751 223.969 218.385 222.037 218.385 219.653C218.385 217.27 216.751 215.337 214.736 215.337C212.72 215.337 211.086 217.27 211.086 219.653C211.086 222.037 212.72 223.969 214.736 223.969Z" fill="white"/>
<path d="M214.736 224.384C212.5 224.384 210.68 222.262 210.68 219.653C210.68 217.044 212.5 214.923 214.736 214.923C216.971 214.923 218.8 217.044 218.8 219.653C218.8 222.262 216.979 224.384 214.736 224.384ZM214.736 215.752C212.956 215.752 211.501 217.499 211.501 219.653C211.501 221.807 212.956 223.555 214.736 223.555C216.516 223.555 217.979 221.807 217.979 219.653C217.979 217.499 216.524 215.752 214.736 215.752Z" fill="#B3B5BD"/>
<path d="M234.706 226.968C236.722 226.968 238.356 225.036 238.356 222.652C238.356 220.269 236.722 218.336 234.706 218.336C232.691 218.336 231.057 220.269 231.057 222.652C231.057 225.036 232.691 226.968 234.706 226.968Z" fill="white"/>
<path d="M234.706 227.383C232.471 227.383 230.65 225.253 230.65 222.644C230.65 220.035 232.471 217.914 234.706 217.914C236.942 217.914 238.762 220.035 238.762 222.644C238.762 225.253 236.942 227.383 234.706 227.383ZM234.706 218.743C232.926 218.743 231.471 220.49 231.471 222.644C231.471 224.798 232.926 226.554 234.706 226.554C236.486 226.554 237.941 224.798 237.941 222.644C237.941 220.49 236.486 218.743 234.706 218.743Z" fill="#B3B5BD"/>
<path d="M250.849 214.671C252.864 214.671 254.498 212.738 254.498 210.355C254.498 207.971 252.864 206.039 250.849 206.039C248.833 206.039 247.199 207.971 247.199 210.355C247.199 212.738 248.833 214.671 250.849 214.671Z" fill="white"/>
<path d="M250.849 215.085C248.614 215.085 246.793 212.964 246.793 210.355C246.793 207.746 248.614 205.616 250.849 205.616C253.084 205.616 254.905 207.746 254.905 210.355C254.905 212.964 253.084 215.085 250.849 215.085ZM250.849 206.445C249.069 206.445 247.614 208.201 247.614 210.355C247.614 212.509 249.069 214.256 250.849 214.256C252.629 214.256 254.084 212.509 254.084 210.355C254.084 208.201 252.629 206.453 250.849 206.453V206.445Z" fill="#B3B5BD"/>
<path d="M254.921 165.138H254.832C254.612 165.098 254.474 164.878 254.515 164.659C254.515 164.659 254.515 164.659 254.515 164.651L263.585 123.246C263.626 123.027 263.846 122.888 264.065 122.929C264.065 122.929 264.065 122.929 264.073 122.929C264.293 122.978 264.439 123.197 264.39 123.417L255.319 164.813C255.27 164.992 255.108 165.122 254.921 165.13V165.138Z" fill="#B3B5BD"/>
<path d="M242.087 163.358C241.867 163.358 241.688 163.171 241.688 162.944C241.688 162.944 241.688 162.944 241.688 162.935L242.794 120.035C242.794 119.808 242.981 119.621 243.208 119.621C243.436 119.621 243.623 119.808 243.623 120.035L242.517 162.935C242.517 163.163 242.339 163.35 242.111 163.358C242.103 163.358 242.095 163.358 242.087 163.358V163.358Z" fill="#B3B5BD"/>
<path d="M207.396 165.35C207.185 165.35 207.014 165.195 206.982 164.984L201.389 123.945C201.357 123.717 201.519 123.506 201.747 123.482C201.975 123.457 202.186 123.612 202.21 123.839L207.802 164.87C207.835 165.089 207.681 165.301 207.453 165.333L207.388 165.35H207.396Z" fill="#B3B5BD"/>
<path d="M229.951 161.472C229.773 161.472 229.626 161.31 229.61 161.099L227.326 118.231C227.318 118.012 227.456 117.825 227.643 117.808C227.83 117.8 227.984 117.963 228.001 118.182L230.285 161.05C230.285 161.269 230.155 161.448 229.968 161.472H229.951Z" fill="#B3B5BD"/>
<path d="M261.529 157.522H261.48L191.798 149.76C191.571 149.727 191.408 149.524 191.432 149.297C191.465 149.077 191.66 148.915 191.888 148.931L261.399 156.677L274.501 146.777C274.68 146.639 274.94 146.679 275.079 146.858C275.209 147.045 275.176 147.297 274.997 147.435L261.797 157.4C261.724 157.473 261.627 157.514 261.529 157.514V157.522Z" fill="#B3B5BD"/>
<path d="M212.517 171.665C212.314 171.665 212.135 171.511 212.11 171.299L206.99 131.862C206.965 131.634 207.12 131.431 207.347 131.399C207.567 131.366 207.77 131.52 207.811 131.74C207.811 131.74 207.811 131.748 207.811 131.756L212.931 171.194C212.964 171.413 212.809 171.616 212.59 171.657C212.59 171.657 212.582 171.657 212.574 171.657H212.517V171.665Z" fill="#B3B5BD"/>
<path d="M228.627 172.754C228.399 172.754 228.212 172.567 228.212 172.34V133.983C228.212 133.756 228.399 133.569 228.627 133.569C228.854 133.569 229.041 133.756 229.041 133.983V172.34C229.041 172.567 228.854 172.754 228.627 172.754Z" fill="#B3B5BD"/>
<path d="M243.501 173.608L243.192 173.323L242.802 173.201C243.143 171.779 246.565 136.901 246.468 135.902C246.451 135.674 246.606 135.479 246.833 135.438C247.053 135.406 247.264 135.56 247.297 135.788C247.337 136.088 243.964 173.112 243.501 173.608V173.608Z" fill="#B3B5BD"/>
<path d="M258.164 174.754L194.96 170.462C194.765 170.446 194.602 170.291 194.57 170.096L189.425 130.057C189.409 129.935 189.441 129.814 189.514 129.716C189.604 129.627 189.726 129.578 189.856 129.594L265.357 137.316C265.471 137.332 265.585 137.389 265.658 137.478C265.723 137.568 265.747 137.69 265.723 137.803L258.579 174.42C258.538 174.616 258.367 174.754 258.164 174.754V174.754ZM195.293 169.666L257.806 173.908L264.805 138.104L190.262 130.48L195.293 169.666V169.666Z" fill="#B3B5BD"/>
<path d="M258.164 174.754C258.075 174.754 257.993 174.729 257.928 174.681C257.798 174.591 257.733 174.429 257.766 174.266L264.91 137.649C264.927 137.568 264.975 137.486 265.032 137.43L279.053 124.23C279.216 124.075 279.484 124.083 279.638 124.254C279.728 124.351 279.768 124.49 279.744 124.62L271.193 166.991C271.169 167.105 271.096 167.211 270.998 167.26L258.416 174.681C258.343 174.729 258.253 174.754 258.172 174.746L258.164 174.754ZM265.691 137.974L258.741 173.551L270.372 166.683L278.663 125.806L265.682 137.982L265.691 137.974Z" fill="#B3B5BD"/>
<path d="M197.073 186.166C196.87 186.166 196.691 186.011 196.667 185.8C196.61 185.385 196.578 185.174 220.531 175.445C220.742 175.363 220.978 175.461 221.067 175.664C221.149 175.875 221.051 176.119 220.84 176.209C211.891 179.85 198.358 185.418 197.374 186.027C197.309 186.092 197.22 186.141 197.13 186.149H197.073V186.166Z" fill="#B3B5BD"/>
<path d="M216.036 220.157C216.052 220.011 216.052 219.873 216.036 219.726C215.792 218.206 213.955 217.711 213.565 219.409C213.411 219.962 213.476 220.555 213.752 221.059C214.598 222.49 215.914 221.417 216.036 220.149V220.157Z" fill="#B3B5BD"/>
<path d="M230.382 205.34C230.382 205.226 230.382 205.112 230.333 204.99C230.325 204.933 230.309 204.876 230.293 204.828C230.244 204.698 230.187 204.567 230.122 204.437C230.049 204.316 229.968 204.21 229.878 204.096H229.838C229.838 204.096 229.789 204.031 229.764 204.007C229.691 203.934 229.602 203.868 229.521 203.812L229.456 203.771L229.204 203.665C229.065 203.633 228.919 203.633 228.781 203.665C228.692 203.665 228.594 203.69 228.521 203.738C228.391 203.779 228.277 203.86 228.18 203.958C228.139 203.999 228.106 204.047 228.066 204.096L227.96 204.234C227.903 204.348 227.846 204.462 227.806 204.584C227.757 204.738 227.732 204.901 227.724 205.063V205.161C227.724 205.161 227.724 205.201 227.724 205.218C227.724 205.332 227.741 205.437 227.765 205.551C227.806 205.705 227.863 205.852 227.936 205.998L227.993 206.087C228.066 206.193 228.139 206.283 228.22 206.38C228.31 206.461 228.407 206.534 228.505 206.6C228.618 206.665 228.732 206.713 228.862 206.754C229.082 206.819 229.309 206.819 229.521 206.754C229.626 206.73 229.724 206.689 229.821 206.632L229.927 206.551L230.041 206.461L230.13 206.348L230.22 206.226C230.268 206.144 230.309 206.055 230.333 205.966C230.333 205.86 230.333 205.754 230.333 205.64C230.342 205.592 230.342 205.543 230.333 205.494L230.398 205.348L230.382 205.34Z" fill="#B3B5BD"/>
<path d="M236.275 222.596C236.275 222.482 236.259 222.376 236.234 222.262C236.21 222.14 236.169 222.027 236.104 221.913V221.864L235.942 221.653C235.787 221.506 235.6 221.393 235.397 221.328C235.21 221.279 235.015 221.279 234.828 221.328C234.65 221.376 234.495 221.474 234.365 221.596C234.284 221.693 234.211 221.799 234.146 221.913C234.089 222.027 234.04 222.14 233.999 222.262C233.999 222.279 233.999 222.303 233.999 222.319C233.999 222.425 233.999 222.539 233.959 222.652C233.959 222.693 233.959 222.726 233.959 222.766V222.953C233.959 223.018 233.959 223.083 233.959 223.148C233.975 223.23 234.007 223.311 234.04 223.384C234.04 223.457 234.105 223.53 234.146 223.603C234.219 223.709 234.3 223.807 234.381 223.904C234.511 224.034 234.666 224.124 234.845 224.172C234.983 224.213 235.129 224.213 235.267 224.172C235.405 224.172 235.544 224.132 235.666 224.05C235.828 223.961 235.958 223.831 236.048 223.668C236.064 223.644 236.08 223.628 236.088 223.603L236.194 223.335C236.218 223.23 236.226 223.124 236.234 223.01C236.234 222.994 236.234 222.969 236.234 222.953C236.267 222.831 236.283 222.709 236.283 222.579L236.275 222.596Z" fill="#B3B5BD"/>
<path d="M252.214 210.314C252.214 210.086 252.157 209.867 252.052 209.672C252.052 209.656 252.052 209.631 252.052 209.615C251.995 209.534 251.938 209.452 251.873 209.387L251.759 209.298L251.645 209.209L251.393 209.103C251.255 209.07 251.109 209.07 250.971 209.103C250.832 209.103 250.694 209.152 250.58 209.225L250.369 209.387C250.239 209.517 250.15 209.672 250.101 209.851C250.077 209.924 250.052 209.997 250.036 210.07C250.003 210.233 249.987 210.395 249.979 210.566V210.769C249.979 210.907 250.003 211.037 250.06 211.159C250.06 211.2 250.06 211.241 250.06 211.281C250.166 211.639 250.442 211.915 250.792 212.013C251.158 212.11 251.556 212.013 251.824 211.745C251.889 211.663 251.962 211.582 252.019 211.501C252.084 211.387 252.133 211.273 252.165 211.151C252.165 211.119 252.165 211.078 252.165 211.046V210.842C252.222 210.68 252.247 210.501 252.222 210.322L252.214 210.314Z" fill="#B3B5BD"/>
<path d="M193.408 149.549C193.172 149.589 192.952 149.443 192.904 149.215C192.855 148.988 193.009 148.768 193.245 148.728L217.434 138.511C217.507 138.494 217.58 138.494 217.654 138.511L274.623 145.964C274.851 145.997 275.014 146.208 274.989 146.435C274.957 146.663 274.737 146.817 274.51 146.785L270.681 146.419L217.686 139.348L193.603 149.54C193.546 149.565 193.481 149.565 193.416 149.557L193.408 149.549Z" fill="#B3B5BD"/>
<path d="M112.062 95.6756C111.972 95.6756 111.891 95.6512 111.826 95.6024C111.639 95.4643 111.599 95.2123 111.729 95.0253C111.826 94.8872 121.734 80.8581 133.552 72.5918C133.731 72.4618 133.983 72.5024 134.113 72.6813C134.243 72.8682 134.203 73.1283 134.016 73.2583C122.328 81.4514 112.501 95.3423 112.403 95.4724C112.33 95.5862 112.2 95.6593 112.062 95.6593V95.6756Z" fill="#101223"/>
<path d="M159.741 66.2032C159.741 66.2032 168.747 84.7921 177.468 88.7505C184.085 91.8148 190.994 94.2044 198.089 95.8869C203.169 97.0655 205.006 103.47 205.006 104.925C205.006 106.38 201.422 107.559 199.642 106.372C197.862 105.185 195.716 102.82 195.716 102.82C195.716 102.82 196.309 107.77 194.529 106.787C192.749 105.803 191.953 100.837 191.953 100.837C191.953 100.837 183.345 101.658 177.737 99.0569C172.128 96.4559 160.838 90.9288 155.287 84.2069" fill="white"/>
<path d="M159.741 66.2032C159.741 66.2032 168.747 84.7921 177.468 88.7505C184.085 91.8148 190.994 94.2044 198.089 95.8869C203.169 97.0655 205.006 103.47 205.006 104.925C205.006 106.38 201.422 107.559 199.642 106.372C197.862 105.185 195.716 102.82 195.716 102.82C195.716 102.82 196.309 107.77 194.529 106.787C192.749 105.803 191.953 100.837 191.953 100.837C191.953 100.837 183.345 101.658 177.737 99.0569C172.128 96.4559 160.838 90.9288 155.287 84.2069" stroke="#101223" stroke-width="0.8" stroke-linejoin="round"/>
<path d="M99.3576 152.832L89.5145 165.203L67.3818 146.118C67.3818 146.118 55.084 157.758 56.8397 158.433C58.5953 159.107 65.2685 158.433 65.2685 158.433C65.2685 158.433 91.6685 186.483 95.8463 183.865C100.024 181.248 119.393 155.945 119.393 155.945" fill="white"/>
<path d="M95.1636 184.45C93.6355 184.45 89.7746 182.8 78.7123 172.413C72.2099 166.3 66.0732 159.839 65.1141 158.831C64.0005 158.936 58.3677 159.432 56.6934 158.831C56.4902 158.758 56.3357 158.579 56.2951 158.359C55.9456 156.612 64.4882 148.37 67.1136 145.875C67.2599 145.745 67.4712 145.745 67.6175 145.875L89.4658 164.667L99.0569 152.629C99.187 152.467 99.4227 152.442 99.5852 152.572C99.7478 152.702 99.7722 152.93 99.6503 153.092L89.8153 165.463C89.7503 165.545 89.6527 165.593 89.5552 165.601C89.4576 165.601 89.352 165.569 89.2707 165.512L67.3899 146.614C62.2611 151.499 57.1079 156.994 57.0429 158.107C58.5059 158.595 63.4315 158.237 65.2278 158.059C65.3416 158.051 65.4636 158.091 65.5448 158.172C75.6562 168.893 92.7658 185.328 95.6512 183.54C99.7722 180.988 118.898 155.97 119.093 155.718C119.239 155.563 119.475 155.563 119.629 155.701C119.759 155.823 119.784 156.018 119.694 156.173C118.873 157.205 100.276 181.557 96.0495 184.182C95.7894 184.353 95.4887 184.442 95.1717 184.426L95.1636 184.45Z" fill="#101223"/>
<path d="M159.92 160.952L160.343 207.55C160.343 207.55 175.55 211.062 173.786 211.769C172.023 212.476 148.045 211.769 148.045 211.769L142.477 153.556" fill="white"/>
<path d="M166.114 212.452C159.05 212.452 149.614 212.192 148.037 212.135C147.85 212.135 147.695 211.988 147.671 211.801L142.103 153.58C142.087 153.377 142.233 153.19 142.445 153.166C142.648 153.149 142.835 153.296 142.859 153.507L148.394 211.395C157.311 211.647 170.365 211.867 173.144 211.501C171.494 210.745 165.65 209.168 160.204 207.908C160.034 207.868 159.92 207.721 159.912 207.542L159.489 160.944C159.489 160.733 159.66 160.562 159.871 160.562C160.074 160.562 160.245 160.725 160.253 160.936L160.668 207.234C174.177 210.363 174.242 211.273 174.266 211.574C174.282 211.818 174.12 212.037 173.884 212.102C173.291 212.346 170.072 212.435 166.114 212.435V212.452Z" fill="#101223"/>
<path d="M137.145 64.8865C128.676 71.836 127.359 87.9052 125.766 99.9185L165.431 107.656C165.431 107.656 170.722 73.8355 165.78 68.1214C160.838 62.4074 145.615 57.9369 137.145 64.8865V64.8865Z" fill="#528EE8"/>
<path d="M140.087 58.5303C140.356 58.4328 140.632 58.3352 140.908 58.2296C138.072 58.3271 135.406 56.6933 133.569 54.5313C131.732 52.3692 130.594 49.7195 129.448 47.1103C131.935 48.4515 134.869 48.6791 137.535 47.7443C133.845 46.7852 131.016 43.8266 130.228 40.1039C135.398 40.6567 140.128 37.4054 144.306 34.333C148.484 31.2606 153.377 28.2369 158.904 30.3502C164.902 32.6342 166.723 39.7138 166.983 45.501C167.308 52.9219 164.187 59.8389 156.742 62.4155C151.751 64.1468 146.2 63.5291 141.217 61.7815C139.559 61.2776 138.023 60.4323 136.706 59.3106C137.86 59.1562 138.998 58.9042 140.104 58.5466L140.087 58.5303Z" fill="white"/>
<path d="M150.361 63.8217C147.199 63.7892 144.07 63.2283 141.095 62.1717C139.388 61.6515 137.812 60.7899 136.454 59.6357C136.349 59.5382 136.308 59.3838 136.349 59.2456C136.389 59.1074 136.511 59.0017 136.657 58.9855C137.47 58.8798 138.283 58.7091 139.071 58.4815C136.796 57.937 134.764 56.6446 133.3 54.8158C131.415 52.5968 130.261 49.8658 129.18 47.2973C129.115 47.151 129.155 46.9803 129.269 46.8746C129.391 46.769 129.562 46.7446 129.708 46.8177C131.724 47.9069 134.065 48.2402 136.308 47.7687C133.024 46.4926 130.61 43.6478 129.879 40.2015C129.854 40.0796 129.887 39.9576 129.968 39.8682C130.049 39.7788 130.171 39.7382 130.293 39.7544C135.243 40.2746 139.624 37.3485 144.103 34.0404C148.305 30.9274 153.271 27.8062 159.05 30.0089C165.813 32.5936 167.17 40.8192 167.365 45.4929C167.739 53.9136 163.821 60.3429 156.88 62.8219C154.783 63.5209 152.58 63.8542 150.369 63.8217H150.361ZM137.584 59.5707C138.738 60.3754 140.006 61.0012 141.347 61.4158C145.224 62.7732 151.036 63.9924 156.628 62.0498C163.228 59.7658 166.967 53.5803 166.609 45.5091C166.414 41.0143 165.13 33.1382 158.782 30.6591C153.352 28.5865 148.581 31.602 144.542 34.585C140.266 37.7468 135.69 40.7786 130.724 40.4941C131.65 43.8429 134.284 46.452 137.649 47.3461C137.812 47.3867 137.925 47.5249 137.942 47.6956C137.95 47.8581 137.852 48.0126 137.698 48.0695C135.267 48.9229 132.601 48.8416 130.22 47.8581C131.106 50.1584 132.333 52.3205 133.861 54.2631C135.836 56.5714 138.462 57.9044 140.9 57.8232C141.087 57.8232 141.242 57.9451 141.29 58.1239C141.323 58.3027 141.225 58.4815 141.055 58.5547L140.234 58.8636C139.372 59.1643 138.502 59.4 137.608 59.5788L137.584 59.5707Z" fill="#101223"/>
<path d="M158.205 57.2542L158.246 64.7808C158.246 64.7808 157.49 68.983 152.905 67.6988C150.182 66.9022 147.955 64.919 146.85 62.3017L147.354 49.2805C147.947 47.0047 148.199 44.6475 148.102 42.2904C153.661 42.2091 158.002 38.0069 158.002 38.0069C158.002 38.0069 159.912 40.8761 160.741 41.7865C161.432 42.4611 162.025 43.2251 162.521 44.0542C163.285 45.501 163.261 47.3135 163.22 48.9148C163.204 50.8168 163.017 52.7106 162.659 54.5719C161.903 58.1158 158.197 57.2461 158.197 57.2461L158.205 57.2542Z" fill="white"/>
<path d="M154.531 68.3165C153.946 68.3165 153.369 68.2271 152.808 68.0645C149.955 67.2517 147.622 65.179 146.476 62.4399C146.468 62.3911 146.468 62.3423 146.476 62.3017C146.476 62.3017 146.996 49.3618 146.996 49.2724C147.021 49.0529 147.061 48.8253 147.126 48.614C147.647 46.5576 147.85 44.4281 147.744 42.3148C147.744 42.2172 147.785 42.1197 147.85 42.0547C147.915 41.9815 148.012 41.9409 148.11 41.9409C153.466 41.8515 157.75 37.8199 157.79 37.7549C157.872 37.6818 157.985 37.6411 158.099 37.6574C158.213 37.6655 158.311 37.7305 158.367 37.8199C158.367 37.8199 160.269 40.6729 161.074 41.5507C161.757 42.2579 162.358 43.0382 162.846 43.8916C163.667 45.4522 163.626 47.3785 163.594 48.9391C163.578 50.8655 163.391 52.7756 163.017 54.6613C162.862 55.6692 162.285 56.5714 161.44 57.1322C160.578 57.6281 159.579 57.8231 158.595 57.6931L158.636 64.7808C158.408 65.9837 157.717 67.0485 156.701 67.7313C156.043 68.1377 155.287 68.3409 154.515 68.3165H154.531ZM147.216 62.2448C148.305 64.7076 150.41 66.5689 152.987 67.333C154.068 67.7313 155.271 67.6419 156.287 67.0973C157.1 66.5283 157.66 65.683 157.872 64.7157L157.823 57.2948C157.823 57.0916 157.985 56.9209 158.189 56.9209C158.221 56.9209 158.254 56.9209 158.286 56.929C159.221 57.116 160.188 56.9778 161.025 56.5226C161.7 56.0675 162.147 55.3441 162.269 54.5394C162.627 52.6943 162.814 50.8249 162.83 48.9473C162.83 47.3948 162.903 45.6473 162.163 44.2655C161.708 43.4689 161.155 42.7374 160.513 42.079C159.611 40.9655 158.766 39.8113 157.977 38.6165C156.864 39.5756 153.141 42.4773 148.492 42.6968C148.565 44.7613 148.354 46.8177 147.85 48.8172C147.801 48.9879 147.76 49.1586 147.736 49.3293C147.736 49.3293 147.72 49.5244 147.216 62.2367V62.2448Z" fill="#101223"/>
<path d="M158.164 60.9525C156.311 60.985 154.515 60.3103 153.149 59.0586C152.019 57.9938 151.418 56.482 151.499 54.9377C153.523 56.2463 155.831 57.0347 158.229 57.2298L158.164 60.9606V60.9525Z" fill="#101223"/>
<path d="M158.018 61.3101C156.108 61.3263 154.271 60.6029 152.881 59.2943C151.67 58.1645 151.02 56.5552 151.109 54.9052C151.125 54.7832 151.207 54.6776 151.32 54.6207C151.426 54.5556 151.556 54.5556 151.67 54.6207C151.67 54.6207 154.929 56.7746 158.213 56.8478C158.416 56.8478 158.571 57.0185 158.571 57.2217V60.9118C158.571 61.1069 158.416 61.2613 158.221 61.2776L158.026 61.3101H158.018ZM151.8 55.6123C151.938 56.8234 152.491 57.9451 153.369 58.7985C154.564 59.912 156.132 60.546 157.766 60.5786V57.6037C155.661 57.3842 153.621 56.7015 151.8 55.6123Z" fill="#101223"/>
<path d="M156.701 51.402C156.311 51.402 155.921 51.3451 155.547 51.2557C155.352 51.2069 155.23 51.0037 155.287 50.8086C155.336 50.6135 155.539 50.4916 155.734 50.5485C156.189 50.6623 157.238 50.7924 157.555 50.4429C157.677 50.1177 156.807 48.3377 155.677 46.6552C155.563 46.4845 155.612 46.2569 155.783 46.1431C155.953 46.0374 156.173 46.0781 156.287 46.2488C157.465 48.0044 158.758 50.2397 158.091 50.9387C157.709 51.2801 157.213 51.4507 156.701 51.4101V51.402Z" fill="#101223"/>
<path d="M149.857 45.4197C149.565 44.485 149.093 43.6153 148.451 42.8675C147.785 42.1197 146.72 41.8677 145.785 42.2254C144.81 42.7049 144.493 43.9323 144.493 45.0133C144.525 46.2406 144.745 47.4598 145.151 48.6222C145.33 49.3212 145.68 49.9714 146.184 50.4916C146.704 51.0281 147.525 51.1419 148.175 50.7761" fill="white"/>
<path d="M147.443 51.3694C146.882 51.3613 146.346 51.15 145.931 50.7761C145.379 50.2071 144.989 49.5081 144.802 48.7359C144.379 47.5411 144.151 46.2813 144.127 45.0133C144.127 44.298 144.265 42.5423 145.631 41.884C146.712 41.4532 147.947 41.7377 148.728 42.5992C149.402 43.3795 149.914 44.2899 150.223 45.2815C150.272 45.4847 150.15 45.6879 149.947 45.7367C149.784 45.7773 149.605 45.7042 149.524 45.5497C149.248 44.6638 148.801 43.8428 148.207 43.1357C147.647 42.5098 146.769 42.2822 145.972 42.5586C144.964 43.0544 144.891 44.5581 144.891 45.0295C144.924 46.2162 145.135 47.3948 145.525 48.5083C145.68 49.1505 146.005 49.7438 146.46 50.2234C146.858 50.6298 147.468 50.7354 147.98 50.4753C148.15 50.3534 148.378 50.3941 148.5 50.5648C148.622 50.7273 148.581 50.963 148.419 51.0849C148.419 51.0849 148.411 51.0849 148.402 51.0931C148.118 51.2719 147.793 51.3613 147.46 51.345L147.443 51.3694Z" fill="#101223"/>
<path d="M125.506 99.6096C125.506 99.6096 116.719 109.38 88.9456 153.483C88.9456 153.483 137.616 170.389 164.504 169.787L165.179 107.64L125.506 99.6096V99.6096Z" fill="#101223"/>
<path d="M163.098 170.178C136.202 170.178 89.3032 154.011 88.848 153.84C88.7505 153.799 88.6692 153.718 88.6286 153.621C88.5798 153.523 88.5798 153.409 88.6286 153.304C116.11 109.672 125.14 99.4795 125.237 99.382C125.319 99.2845 125.449 99.2438 125.579 99.2682L165.252 107.291C165.423 107.331 165.536 107.478 165.545 107.656L164.87 169.804C164.87 169.999 164.715 170.161 164.512 170.169L163.106 170.186L163.098 170.178ZM89.4983 153.296C94.3751 154.946 138.998 169.852 164.155 169.43L164.813 107.941L125.652 100.016C124.441 101.438 114.955 112.915 89.4983 153.296V153.296Z" fill="#101223"/>
<path d="M147.882 209.542C147.882 209.656 160.716 209.542 160.716 209.542C160.716 209.542 162.204 206.665 163.293 206.567C164.382 206.469 176.721 210.062 176.648 212.078C176.574 214.094 146.85 214.394 146.85 214.394L147.882 209.542Z" fill="#101223"/>
<path d="M146.85 214.752C146.744 214.752 146.639 214.703 146.566 214.622C146.5 214.532 146.468 214.427 146.492 214.313L147.533 209.461C147.573 209.282 147.728 209.16 147.915 209.168H148.004C148.654 209.233 155.71 209.168 160.505 209.168C160.928 208.396 162.155 206.291 163.269 206.193C164.382 206.096 174.217 208.908 176.469 211.07C176.786 211.314 176.973 211.688 176.997 212.086C176.997 212.679 176.932 213.679 161.716 214.346C154.352 214.671 146.907 214.752 146.866 214.752H146.85V214.752ZM148.183 209.899L147.297 214.02C160.83 213.874 175.469 213.118 176.306 211.997C176.209 211.85 176.103 211.72 175.981 211.598C173.9 209.615 164.187 206.827 163.326 206.916C162.708 206.973 161.619 208.566 161.042 209.696C160.977 209.818 160.855 209.891 160.716 209.891C152.328 209.956 149.313 209.989 148.167 209.883H148.175L148.183 209.899Z" fill="#101223"/>
<path d="M70.064 147.46L61.1556 156.774L62.8056 159.749C62.8056 159.749 52.7024 163.716 51.3125 162.131C49.9226 160.546 66.1625 144.387 66.1625 144.387L70.064 147.46Z" fill="#101223"/>
<path d="M52.7106 162.83C52.1172 162.903 51.5239 162.732 51.0606 162.35C50.6867 161.919 49.9795 161.115 57.9857 152.401C61.8303 148.199 65.9024 144.151 65.9431 144.111C66.0812 143.989 66.2845 143.989 66.4226 144.111L70.2835 147.183C70.3647 147.248 70.4135 147.338 70.4216 147.435C70.4216 147.541 70.3891 147.638 70.3241 147.72L61.6027 156.815L63.1551 159.554C63.1958 159.652 63.1958 159.757 63.1551 159.855C63.1226 159.952 63.0495 160.034 62.9519 160.074C61.5945 160.611 55.7505 162.838 52.7106 162.838V162.83ZM66.2357 144.851C58.701 152.369 51.2312 160.733 51.6295 161.887C52.4505 162.805 58.2295 161.066 62.3586 159.538L60.8793 156.929C60.798 156.791 60.8224 156.612 60.9362 156.498L69.5357 147.46L66.2357 144.851Z" fill="#101223"/>
<path d="M156.319 54.2306C156.116 54.2306 155.913 54.2143 155.718 54.1737C154.352 53.9054 153.247 52.7106 152.418 50.638C152.345 50.451 152.442 50.2397 152.629 50.1665C152.816 50.0934 153.027 50.1909 153.101 50.3779C153.824 52.2067 154.751 53.2471 155.864 53.4665C157.514 53.7998 159.164 52.166 159.164 52.1417C159.327 52.0197 159.562 52.0441 159.684 52.2067C159.782 52.3367 159.79 52.5155 159.684 52.6537C158.79 53.5722 157.587 54.1412 156.311 54.2468L156.319 54.2306Z" fill="#101223"/>
<path d="M154.832 44.7613C154.677 44.7613 154.539 44.6638 154.482 44.5175C154.352 44.1192 154.165 43.9079 153.954 43.8591C153.483 43.7697 152.784 44.4118 152.572 44.6394C152.434 44.7776 152.198 44.7776 152.06 44.6394C151.922 44.4931 151.922 44.2655 152.06 44.1192C152.166 43.9973 153.157 42.9162 154.125 43.1113C154.669 43.2576 155.084 43.6884 155.206 44.2411C155.271 44.4281 155.165 44.6394 154.978 44.7044C154.937 44.7369 154.881 44.7613 154.832 44.7613Z" fill="#101223"/>
<path d="M160.627 45.6554C160.473 45.6554 160.334 45.5579 160.286 45.4197C160.188 45.1677 159.831 44.4525 159.318 44.2899C158.806 44.1273 158.498 44.9239 158.498 44.932C158.424 45.119 158.205 45.2084 158.018 45.1352C157.831 45.0539 157.742 44.8426 157.823 44.6557C158.018 44.1598 158.644 43.3064 159.514 43.5909C160.172 43.9079 160.684 44.4687 160.936 45.1596C161.001 45.3547 160.903 45.5579 160.716 45.631C160.692 45.6391 160.66 45.6473 160.635 45.6554H160.627Z" fill="#101223"/>
<path d="M138.73 97.8702L111.184 95.0254C111.184 95.0254 100.487 113.639 102.463 118.507C104.438 123.376 116.54 128.123 125.059 125.75C133.577 123.376 138.73 97.8702 138.73 97.8702V97.8702Z" fill="white"/>
<path d="M120.052 126.757C112.289 126.757 103.836 122.84 102.113 118.637C100.081 113.687 110.412 95.6025 110.859 94.8384C110.932 94.7084 111.07 94.6352 111.225 94.6515L138.771 97.4963C138.876 97.5126 138.974 97.5613 139.031 97.6426C139.088 97.732 139.112 97.8377 139.096 97.9433C138.884 98.9919 133.796 123.693 125.156 126.107C123.49 126.554 121.775 126.774 120.052 126.757V126.757ZM111.387 95.4074C110.217 97.48 101.032 113.98 102.812 118.345C104.763 123.132 116.76 127.651 124.945 125.367C132.569 123.23 137.56 101.447 138.267 98.1872L111.379 95.4155L111.387 95.4074Z" fill="#101223"/>
<path d="M117.898 108.152C117.491 108.152 117.085 108.128 116.679 108.071C113.582 107.632 111.59 105.202 110.908 101.048C110.607 99.0406 110.574 96.9923 110.81 94.9766C110.834 94.7734 111.021 94.6271 111.225 94.6515C111.428 94.684 111.574 94.8709 111.558 95.0823C111.558 95.1879 110.103 106.38 116.776 107.315C123.669 108.29 134.804 99.4226 134.926 99.3332C135.072 99.1788 135.308 99.1707 135.463 99.317C135.617 99.4633 135.625 99.699 135.479 99.8534C135.454 99.8778 135.422 99.9022 135.398 99.9185C134.959 100.276 125.067 108.144 117.898 108.144V108.152Z" fill="#101223"/>
<path d="M118.32 102.292C117.735 102.292 117.264 102.763 117.264 103.349C117.264 103.934 117.735 104.405 118.32 104.405C118.906 104.405 119.377 103.934 119.377 103.349C119.377 102.763 118.906 102.292 118.32 102.292Z" fill="#101223"/>
<path d="M137.348 98.2847C137.202 98.2847 137.064 98.2116 136.983 98.0815C136.877 97.8783 136.942 97.6264 137.137 97.5126C137.356 97.3988 159.123 84.9547 162.814 65.4066C162.854 65.1791 163.074 65.0246 163.301 65.0653C163.529 65.1059 163.683 65.3254 163.643 65.553C159.879 85.483 137.787 98.1059 137.568 98.236C137.503 98.2685 137.43 98.2847 137.356 98.2847H137.348Z" fill="#101223"/>
<path d="M181.053 108.453C180.825 108.372 180.508 108.282 180.134 108.193C177.753 107.616 171.226 108.339 168.796 108.689C160.269 109.916 136.958 112.769 133.146 107.778C128.464 101.65 127.318 86.6047 130.496 74.2906C133.674 61.9766 142.672 58.0345 144.55 64.8051C144.55 64.8051 143.087 97.48 145.436 98.0571C147.785 98.6342 178.826 101.747 180.443 102.105C182.061 102.463 188.165 103.771 189.425 104.812C190.685 105.852 191.977 108.656 192.058 110.704C192.115 112.046 190.417 113.265 187.872 113.647C186.645 113.834 185.166 112.452 184.751 111.964C184.109 111.208 182.166 108.867 181.061 108.461L181.053 108.453Z" fill="white" stroke="#101223" stroke-width="0.8" stroke-linejoin="round"/>
</svg>
